<?xml version="1.0" encoding="UTF-8"?><svg xmlns="http://www.w3.org/2000/svg" viewBox="0 0 1920 1080"><defs><style>.cls-1{fill:#f7dfa1;}.cls-1,.cls-2,.cls-3,.cls-4,.cls-5,.cls-6{stroke-width:0px;}.cls-2{fill:#434f5d;}.cls-3{fill:#fedece;}.cls-4{fill:#357c77;}.cls-5{fill:#434f5d;}.cls-6{fill:#fff;}</style></defs><g id="Layer_2"><rect class="cls-4" width="960" height="540"/><rect class="cls-4" x="960" y="540" width="960" height="540"/><rect class="cls-6" y="540" width="960" height="540"/><rect class="cls-6" x="960" width="960" height="540"/><path class="cls-1" d="M1464.55,205.19c-.12,0-.23.01-.34.01-2.39,0-4.53-1.54-5.28-3.83l-25.59-78.3c-2.6-3.29-5.39-4.01-8.36-2.15-1.28,1.53-2.44,3.1-3.47,4.6-4.94,7.24-7.86,14.46-7.89,14.54l-.06.15-55.79,126.62c.45-.28.9-.55,1.35-.83,10.45-6.23,22.55-11.09,35.67-14.48,3.9-9.93,6.95-18.13,9.41-24.74,7.13-19.19,9.06-24.39,14.79-24.39h.05c5.44.03,7.25,5.06,11.61,17.21,2.23,6.2,5.28,14.69,9.6,24.83l.22.63c.08.3.14.6.19.9,14.86.04,29.28,1.77,42.68,5.03l11.06-47.15.99,1.82c-6.07-13.3-12.41-27.16-18.71-40.89l-7.01,35.95c-.49,2.49-2.59,4.33-5.12,4.48Z"/><path class="cls-1" d="M1342.52,328.59c8.37-17.21,26.62-38.17,66.08-40.3,67.88-3.66,111.23-3.23,132.02,48.62,3.84-6.36,5.84-13.09,5.84-19.96,0-15.92-10.72-31.08-30.2-42.68-20.25-12.07-47.28-18.71-76.1-18.71s-55.85,6.65-76.1,18.71c-19.47,11.6-30.2,26.76-30.2,42.68,0,6.62,1.86,13.11,5.43,19.27.91-2.5,1.98-5.06,3.23-7.63Z"/><path class="cls-3" d="M1369.33,358.6c18.17.39,36.01,2.28,36.54,2.34.28.03.56.05.84.08-.23-1.58-.36-3.2-.36-4.84,0-18.32,14.91-33.23,33.23-33.23s33.23,14.91,33.23,33.23c0,.95-.05,1.89-.13,2.83,0,0,0,0,.01,0l1.41-.15c.43-.05,18.33-1.95,36.55-2.34,10.74-.23,18.84.11,24.98.84.09-3.72-.66-7.81-2.24-12.31-8.34-23.65-21.11-37.01-41.42-43.31-21.05-6.53-49.99-5.6-82.86-3.82-27.78,1.5-47.23,13.13-57.79,34.59-5.13,10.42-6.89,20.81-7.49,27.02,6.2-.77,14.46-1.13,25.5-.9ZM1492.45,327.76c4.04,0,7.31,3.27,7.31,7.31s-3.27,7.31-7.31,7.31-7.31-3.27-7.31-7.31,3.27-7.31,7.31-7.31ZM1384.74,327.76c4.04,0,7.31,3.27,7.31,7.31s-3.27,7.31-7.31,7.31-7.31-3.27-7.31-7.31,3.27-7.31,7.31-7.31Z"/><path class="cls-6" d="M1534.75,378.84l4.53-3.19c4.51-3.18,5.92-5.11,6.35-5.89-1.42-1.04-8.2-4.33-36.37-3.58-17.35.46-33.94,2.23-34.11,2.25h0s-1.43.15-1.43.15c-1.05.11-2.21.23-3.44.37-4.32,10.33-13.7,18.03-25.04,19.97.02.85.03,1.74.02,2.65,5.93,11.47,18.19,32.38,28.91,32.91,4.52.24,7.17-3.86,7.27-4.04l1.84-3.08,3.45.92c55.21,13.92,66.8,5.84,69.22,1.73,5.1-8.67-9.51-28.76-17.39-37.13l-3.8-4.04Z"/><path class="cls-6" d="M1435.62,392.16c.02-1.06.02-2.04.01-2.99-11.34-1.35-20.94-8.43-25.82-18.25-1.6-.1-3.25-.22-4.95-.4h-.01c-.17-.02-16.76-1.79-34.11-2.25-28.17-.74-34.95,2.55-36.37,3.58.42.78,1.83,2.71,6.35,5.89l4.53,3.19-3.8,4.04c-7.87,8.38-22.47,28.48-17.39,37.13,2.42,4.12,14.02,12.19,69.21-1.73l3.17-.8,1.91,2.65s4.48,5.91,10.66,5.1c4.93-.65,14.91-6.09,26.6-35.16Z"/><path class="cls-3" d="M1463.2,356.18c0-13.02-10.59-23.61-23.61-23.61s-23.61,10.59-23.61,23.61,10.59,23.61,23.61,23.61,23.61-10.59,23.61-23.61Z"/><circle class="cls-2" cx="1384.74" cy="335.07" r="7.31"/><path class="cls-2" d="M1492.45,342.38c4.04,0,7.31-3.27,7.31-7.31s-3.27-7.31-7.31-7.31-7.31,3.27-7.31,7.31,3.27,7.31,7.31,7.31Z"/><path class="cls-5" d="M1549.07,380.26c3.83-3.32,7.89-8.25,5.8-13.78-1.01-2.69-3.24-5.38-9.68-7.29.24-3.42-.04-7.03-.86-10.81,7.69-9.62,11.75-20.3,11.75-31.42,0-13.05-5.59-25.48-16.05-36.3-11.22-24.81-40.42-89.26-65.87-144.4-10.73-23.26-22.23-34.4-35.05-34.06-8.99.23-17.59,6.26-25.54,17.9-5.3,7.76-8.46,15.38-8.84,16.31l-62.85,142.66c-11.49,11.19-17.64,24.21-17.64,37.9,0,11.06,4.01,21.68,11.61,31.25-1.19,5.55-1.65,10.23-1.83,13.33-5.82,1.9-7.91,4.47-8.88,7.04-2.09,5.54,1.99,10.48,5.82,13.8-2.54,3.04-6.08,7.57-9.3,12.71-8.44,13.44-10.41,24.17-5.87,31.89,4.28,7.28,13.54,10.9,28.37,10.9,12.29,0,28.41-2.5,48.68-7.48,3.08,3.01,9.14,7.48,17.31,6.47,11.08-1.37,21.44-12.43,30.88-32.91,11.34,19.83,22.15,29.72,32.86,30.13,6.05.23,10.69-2.78,13.5-5.73,20.18,4.95,36.22,7.43,48.48,7.43,14.82,0,24.09-3.63,28.37-10.9,8.28-14.08-7.53-35.56-15.16-44.62ZM1413.56,140.21l.06-.15c.03-.07,2.94-7.3,7.89-14.54,1.03-1.5,2.19-3.08,3.47-4.6,2.97-1.86,5.75-1.14,8.36,2.15l25.59,78.3c.75,2.29,2.89,3.83,5.28,3.83.11,0,.23,0,.34-.01,2.53-.16,4.63-2,5.12-4.48l7.01-35.95c6.3,13.73,12.64,27.6,18.71,40.89l-.99-1.82-11.06,47.15c-13.4-3.26-27.83-4.99-42.68-5.03-.05-.3-.1-.6-.19-.9l-.22-.63c-4.32-10.14-7.37-18.63-9.6-24.83-4.37-12.15-6.18-17.18-11.61-17.21h-.05c-5.73,0-7.66,5.2-14.79,24.39-2.46,6.62-5.51,14.82-9.41,24.74-13.13,3.39-25.22,8.25-35.67,14.48-.46.27-.9.55-1.35.83l55.79-126.62ZM1333.86,316.95c0-15.92,10.72-31.08,30.2-42.68,20.25-12.07,47.28-18.71,76.1-18.71s55.85,6.65,76.1,18.71c19.47,11.6,30.2,26.76,30.2,42.68,0,6.87-2,13.6-5.84,19.96-20.79-51.85-64.14-52.28-132.02-48.62-39.46,2.13-57.71,23.09-66.08,40.3-1.25,2.57-2.31,5.13-3.23,7.63-3.57-6.16-5.43-12.64-5.43-19.27ZM1439.59,322.95c-18.32,0-33.23,14.91-33.23,33.23,0,1.64.12,3.26.36,4.84-.28-.03-.56-.05-.84-.08-.54-.06-18.38-1.95-36.54-2.34-11.04-.23-19.3.13-25.5.9.6-6.21,2.35-16.6,7.49-27.02,10.57-21.45,30.01-33.09,57.79-34.59,32.88-1.77,61.81-2.71,82.86,3.82,20.31,6.3,33.09,19.66,41.42,43.31,1.59,4.5,2.33,8.59,2.24,12.31-6.14-.73-14.24-1.07-24.98-.84-18.22.39-36.12,2.29-36.55,2.34l-1.41.15s0,0-.01,0c.08-.93.13-1.87.13-2.83,0-18.32-14.91-33.23-33.23-33.23ZM1435.62,392.16c-11.69,29.07-21.67,34.51-26.6,35.16-6.18.81-10.63-5.06-10.66-5.1l-1.91-2.65-3.17.8c-55.19,13.92-66.79,5.85-69.21,1.73-5.09-8.65,9.52-28.75,17.39-37.13l3.8-4.04-4.53-3.19c-4.52-3.18-5.92-5.11-6.35-5.89,1.42-1.04,8.2-4.32,36.37-3.58,17.35.46,33.94,2.23,34.11,2.25h.01c1.69.18,3.34.3,4.95.4,4.88,9.83,14.48,16.9,25.82,18.25.01.95,0,1.94-.01,2.99ZM1439.59,379.79c-13.02,0-23.61-10.59-23.61-23.61s10.59-23.61,23.61-23.61,23.61,10.59,23.61,23.61-10.59,23.61-23.61,23.61ZM1555.93,420.01c-2.42,4.12-14.01,12.2-69.22-1.73l-3.45-.92-1.84,3.08c-.11.17-2.75,4.27-7.27,4.04-10.73-.53-22.98-21.44-28.91-32.91,0-.91,0-1.79-.02-2.65,11.33-1.95,20.72-9.64,25.04-19.97,1.23-.14,2.39-.26,3.44-.37l1.43-.15h0c.17-.02,16.76-1.79,34.11-2.25,28.17-.74,34.95,2.55,36.37,3.58-.42.78-1.83,2.71-6.35,5.89l-4.53,3.19,3.8,4.04c7.87,8.37,22.48,28.46,17.39,37.13Z"/><path class="cls-4" d="M1359.79,782.5c10.45-6.23,22.55-11.09,35.67-14.48,3.9-9.93,6.95-18.12,9.41-24.74,7.13-19.19,9.06-24.39,14.79-24.39h.05c5.44.03,7.25,5.06,11.61,17.21,2.23,6.2,5.28,14.69,9.6,24.83l.22.62c.08.3.14.6.19.9,14.86.04,29.28,1.77,42.68,5.03l11.06-47.15.99,1.83c-6.07-13.3-12.41-27.16-18.71-40.9l-7.01,35.95c-.49,2.49-2.59,4.33-5.12,4.48-.12,0-.23.01-.34.01-2.39,0-4.53-1.54-5.28-3.83l-25.08-76.74c-1.77-2.7-3.61-4.11-5.49-4.22-1.5-.07-3.07.66-4.73,2.19-.76.98-1.47,1.96-2.12,2.92-4.94,7.24-7.86,14.46-7.89,14.54l-.06.15-55.79,126.63c.45-.28.9-.55,1.35-.83Z"/><path class="cls-4" d="M1343.18,845.08c8.37-17.21,26.62-38.17,66.08-40.29,67.89-3.66,111.23-3.23,132.02,48.62,3.84-6.36,5.84-13.09,5.84-19.96,0-15.92-10.72-31.08-30.2-42.68-20.25-12.07-47.28-18.71-76.1-18.71s-55.85,6.65-76.1,18.71c-19.47,11.6-30.2,26.76-30.2,42.68,0,6.62,1.86,13.11,5.43,19.27.91-2.5,1.98-5.06,3.23-7.63Z"/><path class="cls-4" d="M1370,875.1c18.16.39,35.99,2.28,36.54,2.34.28.03.56.05.84.08-.23-1.58-.36-3.2-.36-4.84,0-18.32,14.91-33.23,33.23-33.23s33.23,14.91,33.23,33.23c0,.95-.05,1.89-.13,2.83,0,0,0,0,.01,0l1.41-.15c.37-.04,18.3-1.95,36.55-2.34,10.74-.23,18.84.1,24.98.83.09-3.72-.66-7.81-2.24-12.31-8.34-23.65-21.11-37.01-41.42-43.31-21.05-6.53-49.98-5.6-82.86-3.82-27.78,1.5-47.23,13.13-57.79,34.59-5.13,10.42-6.89,20.8-7.49,27.01,6.2-.77,14.46-1.13,25.5-.89ZM1493.12,844.25c4.04,0,7.31,3.27,7.31,7.31s-3.27,7.31-7.31,7.31-7.31-3.27-7.31-7.31,3.27-7.31,7.31-7.31ZM1385.4,844.25c4.04,0,7.31,3.27,7.31,7.31s-3.27,7.31-7.31,7.31-7.31-3.27-7.31-7.31,3.27-7.31,7.31-7.31Z"/><path class="cls-4" d="M1535.41,895.34l4.52-3.19c4.52-3.18,5.92-5.11,6.35-5.89-1.42-1.04-8.19-4.32-36.43-3.58-17.34.46-33.89,2.23-34.05,2.24h0l-1.43.15c-1.05.11-2.21.23-3.44.37-4.32,10.33-13.7,18.03-25.04,19.97.02.85.03,1.74.02,2.65,5.93,11.47,18.19,32.38,28.91,32.91,4.53.23,7.17-3.86,7.27-4.04l1.83-3.08,3.45.92c55.19,13.92,66.79,5.84,69.21,1.73,5.09-8.65-9.52-28.75-17.39-37.13l-3.79-4.04Z"/><path class="cls-6" d="M1549.73,896.75c3.83-3.32,7.89-8.25,5.8-13.78-1.01-2.69-3.24-5.38-9.68-7.3.24-3.42-.04-7.02-.86-10.8,7.69-9.62,11.75-20.3,11.75-31.42,0-13.05-5.58-25.48-16.05-36.3-11.22-24.81-40.42-89.26-65.87-144.4-10.73-23.26-22.22-34.41-35.05-34.07-7.38.19-14.49,4.29-21.2,12.2h-.25v.3c-1.38,1.65-2.74,3.44-4.09,5.41-5.3,7.76-8.46,15.37-8.84,16.3l-62.85,142.66c-11.49,11.19-17.64,24.21-17.64,37.9,0,11.06,4.01,21.68,11.61,31.25-1.18,5.55-1.65,10.23-1.83,13.32-5.82,1.9-7.91,4.47-8.88,7.04-2.09,5.54,1.99,10.48,5.82,13.8-2.54,3.04-6.08,7.57-9.3,12.71-8.44,13.44-10.41,24.17-5.87,31.89,4.28,7.28,13.54,10.9,28.37,10.9,12.29,0,28.41-2.5,48.68-7.48,3.08,3.01,9.12,7.48,17.31,6.47,11.08-1.37,21.44-12.43,30.88-32.91,11.34,19.83,22.15,29.72,32.86,30.13,6.06.24,10.69-2.78,13.5-5.73,20.18,4.95,36.22,7.43,48.48,7.43,14.82,0,24.09-3.63,28.37-10.91,8.28-14.08-7.53-35.56-15.16-44.62ZM1556.59,936.5c-2.42,4.12-14.02,12.19-69.21-1.73l-3.45-.92-1.83,3.08c-.11.17-2.74,4.27-7.27,4.04-10.73-.53-22.98-21.44-28.91-32.91,0-.91,0-1.79-.02-2.65,11.33-1.95,20.72-9.64,25.04-19.97,1.23-.14,2.39-.26,3.44-.37l1.43-.15h0c.17-.02,16.71-1.79,34.05-2.24,28.24-.74,35,2.55,36.43,3.58-.42.78-1.83,2.71-6.35,5.89l-4.52,3.19,3.79,4.04c7.87,8.38,22.48,28.48,17.39,37.13ZM1409.68,943.81c-6.18.81-10.63-5.06-10.66-5.09l-1.91-2.65-3.17.8c-55.2,13.92-66.79,5.85-69.21,1.73-5.09-8.64,9.52-28.75,17.39-37.13l3.8-4.04-4.53-3.19c-4.51-3.18-5.92-5.11-6.35-5.89,1.42-1.04,8.2-4.32,36.37-3.58,17.35.46,33.94,2.23,34.11,2.25h.01c1.69.18,3.34.3,4.95.4,4.88,9.83,14.48,16.9,25.82,18.25.01.95,0,1.94-.01,2.99-11.69,29.07-21.67,34.51-26.6,35.16ZM1414.29,656.55c.03-.07,2.94-7.3,7.89-14.54.65-.95,1.36-1.94,2.12-2.92,1.65-1.53,3.23-2.27,4.73-2.19,1.89.11,3.73,1.52,5.49,4.22l25.08,76.74c.75,2.3,2.89,3.83,5.28,3.83.11,0,.23,0,.34-.01,2.53-.16,4.63-2,5.12-4.48l7.01-35.95c6.31,13.74,12.65,27.6,18.71,40.9l-.99-1.83-11.06,47.15c-13.4-3.26-27.83-4.99-42.68-5.03-.05-.3-.1-.6-.19-.9l-.22-.62c-4.32-10.14-7.37-18.63-9.6-24.83-4.37-12.15-6.18-17.18-11.61-17.21h-.05c-5.73,0-7.66,5.2-14.79,24.39-2.46,6.62-5.51,14.82-9.41,24.74-13.13,3.39-25.22,8.25-35.67,14.48-.46.27-.9.55-1.35.83l55.79-126.63.06-.15ZM1364.72,790.77c20.25-12.07,47.28-18.71,76.1-18.71s55.85,6.65,76.1,18.71c19.47,11.6,30.2,26.76,30.2,42.68,0,6.87-2,13.6-5.84,19.96-20.79-51.85-64.14-52.27-132.02-48.62-39.46,2.13-57.71,23.09-66.08,40.29-1.25,2.57-2.31,5.13-3.23,7.63-3.57-6.16-5.43-12.64-5.43-19.27,0-15.92,10.72-31.08,30.2-42.68ZM1440.25,896.28c-13.02,0-23.61-10.59-23.61-23.61s10.59-23.61,23.61-23.61,23.61,10.59,23.61,23.61-10.59,23.61-23.61,23.61ZM1351.98,848.98c10.57-21.45,30.01-33.09,57.79-34.59,32.88-1.77,61.81-2.71,82.86,3.82,20.31,6.3,33.09,19.66,41.42,43.31,1.59,4.5,2.33,8.59,2.24,12.31-6.14-.73-14.24-1.06-24.98-.83-18.25.39-36.18,2.3-36.55,2.34l-1.41.15s0,0-.01,0c.08-.93.13-1.87.13-2.83,0-18.32-14.91-33.23-33.23-33.23s-33.23,14.91-33.23,33.23c0,1.64.12,3.26.36,4.84-.28-.03-.56-.05-.84-.08-.55-.06-18.39-1.95-36.54-2.34-11.04-.24-19.3.12-25.5.89.6-6.21,2.35-16.59,7.49-27.01Z"/><path class="cls-4" d="M1436.29,908.65c.02-1.06.02-2.04.01-2.99-11.34-1.35-20.94-8.43-25.82-18.25-1.6-.1-3.25-.22-4.95-.4h-.01c-.17-.02-16.76-1.79-34.11-2.25-28.18-.74-34.95,2.55-36.37,3.58.42.78,1.83,2.71,6.35,5.89l4.53,3.19-3.8,4.04c-7.87,8.38-22.47,28.48-17.39,37.13,2.42,4.12,14.02,12.19,69.21-1.73l3.17-.8,1.91,2.65s4.47,5.91,10.66,5.09c4.93-.65,14.91-6.09,26.6-35.16Z"/><path class="cls-4" d="M1463.86,872.67c0-13.02-10.59-23.61-23.61-23.61s-23.61,10.59-23.61,23.61,10.59,23.61,23.61,23.61,23.61-10.59,23.61-23.61Z"/><circle class="cls-6" cx="1385.4" cy="851.56" r="7.31"/><path class="cls-6" d="M1493.12,858.87c4.04,0,7.31-3.27,7.31-7.31s-3.27-7.31-7.31-7.31-7.31,3.27-7.31,7.31,3.27,7.31,7.31,7.31Z"/></g><g id="Layer_1"><polygon class="cls-6" points="533.14 243.67 533.14 384.11 427.06 243.67 426.86 243.82 426.86 243.67 390.31 243.67 390.31 446 426.86 446 426.86 305.26 533.14 445.95 533.14 446 569.69 446 569.69 243.67 533.14 243.67"/><polygon class="cls-6" points="663.52 243.7 480.26 94.25 480.05 94 480 94.04 479.95 94 479.74 94.25 296.48 243.7 354.36 243.67 480 141.21 605.64 243.67 663.52 243.7"/><polygon class="cls-4" points="533.14 783.67 533.14 924.11 427.06 783.67 426.86 783.82 426.86 783.67 390.31 783.67 390.31 986 426.86 986 426.86 845.26 533.14 985.95 533.14 986 569.69 986 569.69 783.67 533.14 783.67"/><polygon class="cls-4" points="663.52 783.7 480.26 634.25 480.05 634 480 634.04 479.95 634 479.74 634.25 296.48 783.7 354.36 783.67 480 681.21 605.64 783.67 663.52 783.7"/></g></svg>